<svg width="21" height="20" viewBox="0 0 21 20" fill="none" xmlns="http://www.w3.org/2000/svg">
<path d="M17.1667 7.5H9.66667C8.74619 7.5 8 8.24619 8 9.16667V16.6667C8 17.5871 8.74619 18.3333 9.66667 18.3333H17.1667C18.0871 18.3333 18.8333 17.5871 18.8333 16.6667V9.16667C18.8333 8.24619 18.0871 7.5 17.1667 7.5Z" stroke="white" stroke-width="1.5" stroke-linecap="round" stroke-linejoin="round"/>
<path d="M4.66406 12.5H3.83073C3.3887 12.5 2.96478 12.3244 2.65222 12.0119C2.33966 11.6993 2.16406 11.2754 2.16406 10.8334V3.33335C2.16406 2.89133 2.33966 2.4674 2.65222 2.15484C2.96478 1.84228 3.3887 1.66669 3.83073 1.66669H11.3307C11.7728 1.66669 12.1967 1.84228 12.5092 2.15484C12.8218 2.4674 12.9974 2.89133 12.9974 3.33335V4.16669" stroke="white" stroke-width="1.5" stroke-linecap="round" stroke-linejoin="round"/>
</svg>
